PathFileType	4	(X/Y/Z)	SUBJ89_1_walk_RCNL2025.trc
DataRate	CameraRate	NumFrames	NumMarkers	Units	OrigDataRate	OrigDataStartFrame	OrigNumFrames
100	100	7	25	mm	100	1	243
Frame#	Time	R_Shoulder			L_Shoulder			C7			J_Notch			R_Elbow			L_Elbow			R_Wrist			L_Wrist			R_Asis			L_Asis			Sacral			Thoracic			Sternum			R_Thigh_Lateral			R_Knee_Lateral			R_Shank_Lateral			R_Ankle_Lateral			R_Heel			R_Toe			L_Thigh_Lateral			L_Knee_Lateral			L_Shank_Lateral			L_Ankle_Lateral			L_Heel			L_Toe		
		X1	Y1	Z1	X2	Y2	Z2	X3	Y3	Z3	X4	Y4	Z4	X5	Y5	Z5	X6	Y6	Z6	X7	Y7	Z7	X8	Y8	Z8	X9	Y9	Z9	X10	Y10	Z10	X11	Y11	Z11	X12	Y12	Z12	X13	Y13	Z13	X14	Y14	Z14	X15	Y15	Z15	X16	Y16	Z16	X17	Y17	Z17	X18	Y18	Z18	X19	Y19	Z19	X20	Y20	Z20	X21	Y21	Z21	X22	Y22	Z22	X23	Y23	Z23	X24	Y24	Z24	X25	Y25	Z25
1	0.00000000	-1956.039795	1372.027832	434.566193	-1986.964844	1376.691284	19.999403	-2036.283081	1468.487061	232.002457	-1918.412109	1341.850464	229.403519	-2034.739868	1042.899780	480.213074	-2088.912109	1048.492065	-4.827102	-1923.145325	795.848236	473.104294	-2084.109741	784.483490	-43.039545	-1951.365723	939.274170	364.289612	-1928.318359	953.136780	126.469810	-2106.586426	1006.158325	242.309006	-2124.252441	1292.059326	237.514191	-1888.573853	1193.213745	222.977402	-2065.603516	566.519226	423.256012	-2108.636963	453.674622	370.086609	-2279.404785	303.664673	405.528809	-2428.318848	162.237183	328.009521	-2453.764648	184.339432	280.348785	-2357.205811	26.777384	305.324524	-1823.347168	558.640320	56.264652	-1808.203247	481.935547	132.332138	-1802.290649	247.535004	93.550476	-1794.711914	53.324970	167.177216	-1836.060547	58.360817	214.401367	-1639.256470	29.419279	186.834290
2	0.01000000	-1941.330811	1374.439941	433.223633	-1970.843384	1377.804932	18.704845	-2021.313232	1470.260254	230.218658	-1903.748779	1343.494873	228.452820	-2021.874634	1045.633667	478.602509	-2072.053223	1049.189453	-4.734687	-1913.773804	797.060608	472.594330	-2066.402222	785.212067	-42.294746	-1935.628174	940.369507	363.217041	-1913.156250	955.919922	125.531067	-2091.395264	1007.847229	242.384140	-2109.161621	1293.706787	236.194550	-1872.537354	1195.166748	222.281631	-2041.628784	565.604736	423.782562	-2082.006836	452.261322	371.318542	-2256.243408	307.225067	406.720612	-2409.017090	170.758713	329.231873	-2432.666748	194.223068	281.072662	-2347.413574	29.639662	306.926208	-1809.959961	559.937622	56.059116	-1796.378784	482.573425	132.221588	-1796.156494	247.932526	93.500160	-1793.940186	53.562523	167.498184	-1835.371704	59.078487	214.368103	-1638.201050	28.067467	187.279617
3	0.02000000	-1926.902222	1377.060547	432.020081	-1954.953613	1379.268677	17.554132	-2006.541504	1472.313965	228.586761	-1889.254761	1345.412720	227.585617	-2009.227539	1048.586304	477.185669	-2055.075684	1050.125488	-4.670312	-1904.587036	798.575317	472.024200	-2047.893555	786.197296	-41.521564	-1920.223999	941.863403	362.224213	-1898.255371	958.763733	124.621422	-2076.459717	1009.799500	242.324707	-2094.298340	1295.658569	234.948608	-1856.966309	1197.347778	221.720398	-2017.767456	565.116150	424.176575	-2054.837158	451.296539	372.292267	-2231.564697	310.529602	407.773193	-2387.983643	178.933640	330.262299	-2410.216553	203.328552	281.675354	-2334.050049	33.551975	309.096497	-1798.923706	560.540100	55.316257	-1786.128906	482.891693	131.706085	-1791.718018	248.150497	93.266151	-1793.579956	53.781982	167.724106	-1834.954834	59.687283	214.302795	-1637.605469	27.430929	187.485809
4	0.03000000	-1912.789307	1379.861572	430.985596	-1939.323486	1381.047363	16.551420	-1991.961304	1474.642578	227.117157	-1874.902222	1347.615601	226.815491	-1996.805420	1051.716919	475.958282	-2037.979858	1051.264526	-4.644473	-1895.536743	800.372253	471.451767	-2028.576172	787.410309	-40.729753	-1905.099609	943.774475	361.318512	-1883.617798	961.625977	123.752380	-2061.763916	1012.017456	242.136688	-2079.656982	1297.901733	233.780212	-1841.870728	1199.742065	221.285858	-1994.225708	565.187134	424.400177	-2027.293579	450.945801	373.013336	-2205.631592	313.701080	408.649170	-2365.409912	186.607437	331.084381	-2386.658936	211.460602	282.140198	-2316.886719	38.383839	311.865387	-1789.986206	560.593506	54.129807	-1777.343140	482.942596	130.839142	-1788.622070	248.228561	92.828842	-1793.500244	53.956184	167.827621	-1834.733887	60.205521	214.164642	-1637.354858	27.252256	187.509186
5	0.04000000	-1899.012573	1382.827881	430.141907	-1923.970337	1383.112061	15.696155	-1977.564819	1477.225952	225.815292	-1860.676392	1350.093628	226.155548	-1984.610840	1055.004761	474.911926	-2020.764771	1052.584717	-4.666342	-1886.583130	802.437988	470.931625	-2008.444763	788.834076	-39.922001	-1890.201294	946.109375	360.486298	-1869.237793	964.477478	122.917862	-2047.285278	1014.492859	241.829422	-2065.227051	1300.411621	232.691360	-1827.218750	1202.335938	220.961014	-1971.078491	565.925720	424.446075	-1999.521851	451.350525	373.516998	-2178.748047	316.912628	409.318726	-2341.441406	193.597397	331.711029	-2362.127197	218.454544	282.460968	-2296.008789	43.825390	315.143951	-1782.649780	560.295898	52.664661	-1769.830811	482.793457	129.716019	-1786.459595	248.204910	92.204147	-1793.583862	54.077042	167.798248	-1834.642456	60.655739	213.926910	-1637.343750	27.328945	187.404083
6	0.05000000	-1885.570801	1385.948486	429.494171	-1908.901978	1385.441406	14.980704	-1963.343994	1480.029297	224.680664	-1846.573730	1352.817383	225.610550	-1972.642578	1058.440674	474.035828	-2003.430298	1054.076050	-4.743957	-1877.695129	804.761261	470.504471	-1987.512146	790.470673	-39.099855	-1875.488037	948.856873	359.695648	-1855.103271	967.296997	122.097618	-2032.998413	1017.202271	241.413651	-2050.993896	1303.151123	231.681412	-1812.953491	1205.113647	220.723984	-1948.270020	567.385376	424.333466	-1971.656616	452.594086	373.846436	-2151.208496	320.301178	409.776794	-2316.187256	199.709320	332.184937	-2336.683105	224.182526	282.661865	-2271.748291	49.465702	318.733215	-1776.340820	559.867371	51.096874	-1763.361572	482.518280	128.452881	-1784.836304	248.118790	91.436951	-1793.740234	54.151402	167.642319	-1834.629272	61.058872	213.583420	-1637.483887	27.517715	187.218765
7	0.06000000	-1872.440308	1389.208984	429.029694	-1894.114868	1388.017822	14.390176	-1949.289062	1483.007202	223.706863	-1832.594238	1355.745361	225.174942	-1960.896118	1062.015991	473.317413	-1985.976074	1055.732910	-4.883779	-1868.848938	807.327026	470.190674	-1965.815674	792.338135	-38.267046	-1860.945068	951.981506	358.904663	-1841.196655	970.068115	121.264420	-2018.879028	1020.105957	240.902008	-2036.938599	1306.071777	230.747925	-1799.003540	1208.053223	220.551163	-1925.663208	569.553162	424.096588	-1943.824219	454.679718	374.036713	-2123.252441	323.890930	410.053772	-2289.743408	204.763123	332.569702	-2310.369629	228.558350	282.803894	-2244.555664	54.890175	322.369354	-1770.549194	559.492676	49.571575	-1757.706787	482.186798	127.162239	-1783.423706	248.009491	90.588104	-1793.910156	54.194878	167.379684	-1834.657837	61.430836	213.148880	-1637.707886	27.727928	186.992615
